<?xml version="1.0" encoding="UTF-8"?>
<svg version="1.1" xmlns="http://www.w3.org/2000/svg" width="1024" height="1024">
<path d="M0 0 C337.92 0 675.84 0 1024 0 C1024 337.92 1024 675.84 1024 1024 C686.08 1024 348.16 1024 0 1024 C0 686.08 0 348.16 0 0 Z " fill="#FEFEFE" transform="translate(0,0)"/>
<path d="M0 0 C1.04343567 0.00310181 2.08687134 0.00620361 3.16192627 0.00939941 C98.59781032 0.34070448 193.09253617 30.93923426 266.4375 93.25 C267.50769327 94.14597576 268.57801321 95.04180024 269.6484375 95.9375 C284.79180204 108.68833354 299.56198105 122.19046797 312.4375 137.25 C313.28699219 138.21035156 314.13648438 139.17070312 315.01171875 140.16015625 C365.67766912 197.74257584 397.04527289 270.1297373 408.5625 345.625 C408.72121582 346.65069092 408.87993164 347.67638184 409.04345703 348.7331543 C411.62966764 366.36208203 412.77464325 383.91801227 412.69824219 401.72680664 C412.68751519 404.68331446 412.69822667 407.63921333 412.7109375 410.59570312 C412.77198944 495.63007974 382.28737357 580.47242721 331.4375 648.25 C330.9930957 648.84748047 330.54869141 649.44496094 330.09082031 650.06054688 C314.43049204 671.07740557 296.41856384 691.25740832 276.4375 708.25 C275.00083984 709.52037109 275.00083984 709.52037109 273.53515625 710.81640625 C205.40073465 770.79720413 112.55426176 810.1189213 21.125 810.453125 C19.87662354 810.45882507 18.62824707 810.46452515 17.34204102 810.47039795 C14.70655143 810.47979458 12.07105037 810.48636053 9.43554688 810.49023438 C5.50368249 810.49983834 1.57236491 810.53087213 -2.359375 810.5625 C-25.21966423 810.65910769 -47.71834457 808.74969648 -70.1875 804.5 C-70.86596985 804.37372223 -71.5444397 804.24744446 -72.24346924 804.11734009 C-109.46317423 797.15697699 -146.07801875 784.9147975 -179.61669922 767.265625 C-181.70399478 766.17614576 -183.80579194 765.11860562 -185.91015625 764.0625 C-204.56968443 754.59990672 -222.36369701 743.52871417 -238.82470703 730.60693359 C-240.51404392 729.28783631 -242.2194975 727.99373212 -243.93359375 726.70703125 C-260.14587294 714.50135969 -275.06759341 700.80451098 -289.4375 686.5 C-290.13915283 685.80302002 -290.84080566 685.10604004 -291.5637207 684.38793945 C-296.09954045 679.83809863 -300.39873079 675.14173466 -304.5625 670.25 C-305.10664551 669.61255859 -305.65079102 668.97511719 -306.21142578 668.31835938 C-315.22352856 657.68305856 -323.59159391 646.68339317 -331.5625 635.25 C-332.210979 634.32767578 -332.210979 634.32767578 -332.87255859 633.38671875 C-369.6321147 580.86058868 -392.6619586 518.74393914 -400.5625 455.25 C-400.70073685 454.18647812 -400.70073685 454.18647812 -400.84176636 453.10147095 C-402.66342304 438.78789672 -402.90312446 424.54355344 -402.87817383 410.12670898 C-402.87503049 406.34914793 -402.89850901 402.57238597 -402.92382812 398.79492188 C-403.17076449 301.8036721 -365.84366897 206.26359747 -283.36108398 115.93139648 C-278.27022757 110.81677532 -273.09017677 105.89365493 -267.5625 101.25 C-266.634375 100.44433594 -265.70625 99.63867188 -264.75 98.80859375 C-249.01385145 85.19594869 -232.01357091 73.55137436 -214.5625 62.25 C-213.52125977 61.57541748 -213.52125977 61.57541748 -212.45898438 60.88720703 C-167.57517261 32.14180127 -115.94402399 13.9831672 -63.625 5.0625 C-62.89275208 4.93566833 -62.16050415 4.80883667 -61.40606689 4.67816162 C-40.97940686 1.16939642 -20.71157997 -0.11040421 0 0 Z " fill="#1C2F4B" transform="translate(507.5625,103.75)"/>
<path d="M0 0 C0.81505005 0.00054382 1.6301001 0.00108765 2.46984863 0.00164795 C67.43754879 0.19869173 130.66852984 23.82446954 177.1875 69.625 C204.99000223 98.36796742 224.07168227 134.37749627 232.75 173.375 C232.95882813 174.29023438 233.16765625 175.20546875 233.3828125 176.1484375 C241.55724961 213.50251087 237.39647201 253.29918966 225.75 289.375 C225.47816895 290.22352539 225.20633789 291.07205078 224.92626953 291.94628906 C216.99391034 316.18540259 203.88105491 337.90457861 189.6875 358.9375 C178.01181746 376.24708696 167.25537709 393.9134006 161.375 414.0625 C161.01656006 415.29021118 161.01656006 415.29021118 160.65087891 416.54272461 C156.98492304 429.96553838 156.37476149 443.30826847 156.4375 457.125 C156.43965515 457.98082672 156.4418103 458.83665344 156.44403076 459.71841431 C156.58606087 495.0219265 163.47997932 529.55005424 174.97265625 562.91796875 C175.34148926 563.99014648 175.71032227 565.06232422 176.09033203 566.16699219 C176.79787242 568.19546356 177.52043158 570.21878852 178.26123047 572.23535156 C180.6996488 579.14803179 182.46342679 586.22670356 179.5625 593.25 C176.67277038 596.63795887 173.99639072 598.95953643 169.75 600.375 C168.33673722 600.46682775 166.91954546 600.50408365 165.50330448 600.50642776 C164.63243263 600.51026891 163.76156078 600.51411005 162.86429888 600.5180676 C161.4282302 600.51676787 161.4282302 600.51676787 159.96315002 600.51544189 C158.94660448 600.51841302 157.93005893 600.52138414 156.88270897 600.5244453 C153.46029058 600.5331498 150.03790711 600.53464201 146.61547852 600.53613281 C144.16835454 600.54075967 141.72123129 600.54578414 139.27410889 600.55117798 C132.61513808 600.56431489 125.95618099 600.57078569 119.29720044 600.57518864 C115.14073321 600.57795054 110.98426831 600.58218775 106.82780266 600.58669281 C95.32325289 600.59888438 83.81870499 600.60918461 72.3141489 600.6125679 C71.57782531 600.61278747 70.84150172 600.61300703 70.08286529 600.61323325 C68.97572143 600.61356067 68.97572143 600.61356067 67.84621102 600.6138947 C66.35051763 600.61433817 64.85482424 600.61478473 63.35913086 600.61523438 C62.61721353 600.6154558 61.8752962 600.61567723 61.11089652 600.61590537 C49.08278907 600.61985541 37.05474213 600.63731618 25.02665807 600.6605939 C12.68228589 600.68429129 0.33794411 600.69676898 -12.00645119 600.69793582 C-18.93933124 600.69885338 -25.87213241 600.70462609 -32.80499077 600.72275543 C-39.32285673 600.73973943 -45.84059911 600.74142117 -52.35848999 600.73261642 C-54.75468916 600.73184285 -57.1508962 600.73623063 -59.54707527 600.74607468 C-62.81028696 600.75869777 -66.07295923 600.75296988 -69.33616638 600.74249268 C-70.29131478 600.75054908 -71.24646318 600.75860548 -72.23055547 600.76690602 C-78.56827679 600.71909197 -78.56827679 600.71909197 -81.8058939 599.08494186 C-84.29749049 596.13468404 -84.49351129 592.45528828 -85.0625 588.75 C-85.3895791 586.85874012 -85.72059079 584.96815782 -86.0546875 583.078125 C-86.33070801 581.49741211 -86.33070801 581.49741211 -86.61230469 579.88476562 C-87.72015896 573.78732573 -88.96805794 567.71996527 -90.23861694 561.65460205 C-90.67510389 559.55950033 -91.10004772 557.46228129 -91.5246582 555.36474609 C-96.30758164 531.69810902 -96.30758164 531.69810902 -111.02734375 513.53125 C-116.37214711 510.75082505 -121.63138304 510.12481816 -127.58203125 510.14453125 C-128.25868332 510.14498947 -128.93533539 510.14544769 -129.63249207 510.1459198 C-131.05522428 510.14892093 -132.47795384 510.15674241 -133.90063477 510.16918945 C-136.04650908 510.18736456 -138.19194751 510.18969913 -140.33789062 510.18945312 C-148.78382135 510.21046664 -148.78382135 510.21046664 -157.19921875 510.875 C-163.77034803 511.63831647 -170.37523953 511.561018 -176.98144531 511.56030273 C-179.24563228 511.56249577 -181.50933579 511.58073369 -183.7734375 511.59960938 C-198.07036317 511.65666493 -210.75288302 510.10363445 -221.71875 500.04296875 C-227.99315814 493.2083456 -230.64196539 485.67939679 -230.625 476.4375 C-230.62628906 475.69532227 -230.62757813 474.95314453 -230.62890625 474.18847656 C-230.50717122 467.68948615 -229.01303046 462.18387714 -227.15625 455.95703125 C-225.45829486 449.24571717 -224.81088762 442.42591825 -227.8125 436.0625 C-229.2065333 434.52548893 -230.6097256 432.99642415 -232.0390625 431.4921875 C-235.01055229 428.27613064 -237.03468746 426.02093761 -238.4375 421.8125 C-238.18720637 417.22378348 -236.58238813 413.70738813 -233.25 410.375 C-233.13303523 407.45088077 -233.11926879 406.0047281 -234.25 403.375 C-236.44174663 401.27982458 -238.72623583 399.57893187 -241.21875 397.85546875 C-243.25 396.375 -243.25 396.375 -244.25 394.375 C-245.06090592 387.59442714 -243.48954764 382.44210562 -240.75 376.3125 C-237.69554684 369.4429287 -235.76012616 363.84462153 -238.25 356.375 C-240.54051064 355.21865758 -240.54051064 355.21865758 -243.25 354.375 C-244.06186768 354.08915039 -244.87373535 353.80330078 -245.71020508 353.50878906 C-246.55478271 353.22229492 -247.39936035 352.93580078 -248.26953125 352.640625 C-249.20990234 352.31320312 -250.15027344 351.98578125 -251.11914062 351.6484375 C-253.06610577 350.97145692 -255.01662641 350.30460832 -256.97070312 349.6484375 C-264.80801644 346.88799131 -272.78213143 343.18051659 -276.62109375 335.34765625 C-278.41990794 329.70541297 -278.04360022 324.38144895 -275.3984375 319.09765625 C-271.72679506 312.05865834 -267.24341798 305.51611934 -262.84265137 298.91998291 C-260.76286547 295.8006359 -258.69799409 292.67152203 -256.63223267 289.5428772 C-255.10318025 287.22733972 -253.57249654 284.91288779 -252.04150391 282.59863281 C-246.31450594 273.93661798 -240.61947847 265.26508143 -235.25 256.375 C-234.70827148 255.48151855 -234.16654297 254.58803711 -233.60839844 253.66748047 C-226.38787638 241.54838846 -221.74105485 232.37755429 -224.74145508 218.02392578 C-226.34603173 210.14981604 -226.59719329 202.52406124 -226.5625 194.5 C-226.56034485 193.82036194 -226.5581897 193.14072388 -226.55596924 192.44049072 C-226.45676431 172.85583211 -223.29785634 154.98711569 -217.25 136.375 C-216.99766602 135.58416016 -216.74533203 134.79332031 -216.48535156 133.97851562 C-207.00275355 104.76186228 -190.24134194 77.84742479 -166.25 58.375 C-165.19767136 57.48726988 -164.14561339 56.59921885 -163.09375 55.7109375 C-127.21033136 25.79905578 -82.31236366 8.38883158 -36.25 2.375 C-35.60138 2.28919678 -34.95276001 2.20339355 -34.28448486 2.11499023 C-22.83829675 0.62938818 -11.53928676 -0.02945365 0 0 Z " fill="#FEFEFE" transform="translate(521.25,209.625)"/>
<path d="M0 0 C1.22396484 0.29003906 1.22396484 0.29003906 2.47265625 0.5859375 C27.83213913 6.78237223 50.85743373 18.15596847 70 36 C70.9595459 36.89380371 70.9595459 36.89380371 71.93847656 37.80566406 C95.6516053 60.1553163 110.67824244 86.54516579 119 118 C119.27336182 119.00111816 119.27336182 119.00111816 119.55224609 120.02246094 C129.28861047 157.24346782 120.08446818 200.31691697 101.11279297 232.9934082 C85.28242755 259.35100427 62.2781937 280.10596676 35 294 C34.37577148 294.31952637 33.75154297 294.63905273 33.10839844 294.96826172 C21.32473406 300.86626014 8.81677229 304.12757079 -4 307 C-5.2516394 307.29692749 -5.2516394 307.29692749 -6.52856445 307.59985352 C-15.14268388 309.43645342 -23.79974454 309.35459833 -32.5625 309.3125 C-33.36502197 309.31034485 -34.16754395 309.3081897 -34.99438477 309.30596924 C-46.56667401 309.25599405 -57.75363909 308.9746197 -69 306 C-70.17175781 305.70198486 -70.17175781 305.70198486 -71.3671875 305.39794922 C-112.80481709 294.62707003 -146.6211634 268.77191756 -168.6171875 232.1640625 C-189.83203482 195.74438515 -195.11286441 153.25057311 -185.3125 112.4375 C-177.79097879 86.0978763 -163.44829964 61.28348354 -144 42 C-143.49887695 41.50161621 -142.99775391 41.00323242 -142.48144531 40.48974609 C-105.87739695 4.5128699 -50.33730488 -12.12312055 0 0 Z " fill="#FEFEFE" transform="translate(560,267)"/>
<path d="M0 0 C1.22396484 0.29003906 1.22396484 0.29003906 2.47265625 0.5859375 C27.83213913 6.78237223 50.85743373 18.15596847 70 36 C70.9595459 36.89380371 70.9595459 36.89380371 71.93847656 37.80566406 C95.6516053 60.1553163 110.67824244 86.54516579 119 118 C119.27336182 119.00111816 119.27336182 119.00111816 119.55224609 120.02246094 C129.28861047 157.24346782 120.08446818 200.31691697 101.11279297 232.9934082 C85.28242755 259.35100427 62.2781937 280.10596676 35 294 C34.37577148 294.31952637 33.75154297 294.63905273 33.10839844 294.96826172 C21.32473406 300.86626014 8.81677229 304.12757079 -4 307 C-5.2516394 307.29692749 -5.2516394 307.29692749 -6.52856445 307.59985352 C-15.14268388 309.43645342 -23.79974454 309.35459833 -32.5625 309.3125 C-33.36502197 309.31034485 -34.16754395 309.3081897 -34.99438477 309.30596924 C-46.56667401 309.25599405 -57.75363909 308.9746197 -69 306 C-70.17175781 305.70198486 -70.17175781 305.70198486 -71.3671875 305.39794922 C-112.80481709 294.62707003 -146.6211634 268.77191756 -168.6171875 232.1640625 C-189.83203482 195.74438515 -195.11286441 153.25057311 -185.3125 112.4375 C-177.79097879 86.0978763 -163.44829964 61.28348354 -144 42 C-143.49887695 41.50161621 -142.99775391 41.00323242 -142.48144531 40.48974609 C-105.87739695 4.5128699 -50.33730488 -12.12312055 0 0 Z M-119 65 C-119.73089844 65.64582031 -120.46179688 66.29164063 -121.21484375 66.95703125 C-141.85308945 86.3291269 -155.29558636 116.43216574 -156.24609375 144.62109375 C-156.43881634 155.22257257 -156.15043372 165.59190081 -154 176 C-153.74347656 177.26714844 -153.48695313 178.53429687 -153.22265625 179.83984375 C-148.18565348 202.90224103 -136.07355032 222.92369608 -120 240 C-119.47277344 240.59167969 -118.94554687 241.18335938 -118.40234375 241.79296875 C-99.49749999 262.14831203 -69.39595546 274.29978494 -42.02734375 275.31640625 C-6.136151 276.12115177 26.04863431 266.15847312 52.69921875 241.33984375 C56.81212881 237.157105 60.42155407 232.64089891 64 228 C64.98419922 226.80890625 64.98419922 226.80890625 65.98828125 225.59375 C81.85054616 205.50366699 89.44368169 178.63056584 89.3125 153.3125 C89.30758545 152.1783667 89.3026709 151.0442334 89.29760742 149.87573242 C88.84212641 116.98066039 74.2916681 87.2916681 51.203125 64.203125 C45.50308511 58.88952849 39.57785082 54.17550531 33 50 C31.98679687 49.35289062 30.97359375 48.70578125 29.9296875 48.0390625 C16.40863862 39.85114195 1.59231309 34.57233592 -14 32 C-15.02867187 31.81695312 -16.05734375 31.63390625 -17.1171875 31.4453125 C-55.7754072 27.01167362 -90.30826984 39.30781526 -119 65 Z " fill="#1B2E4A" transform="translate(560,267)"/>
<path d="M0 0 C3.55248559 2.19195919 5.53042904 4.11780987 7 8 C7.1630323 10.53000879 7.21920983 12.94495505 7.17602539 15.47143555 C7.17161438 16.21834152 7.16720337 16.9652475 7.16265869 17.73478699 C7.15282566 19.35425768 7.13897512 20.97370786 7.12156868 22.59311485 C7.08911511 26.04525409 7.0915996 29.49709481 7.09185696 32.94936085 C7.09171347 39.37181269 7.07670642 45.79350308 7.00366211 52.21557617 C6.95413424 56.68813388 6.94877865 61.15891411 6.97179985 65.63166237 C6.97236621 67.32965129 6.95681794 69.02772971 6.92436409 70.72540855 C6.56677043 80.28212721 6.56677043 80.28212721 9.93624878 88.98110962 C12.17730686 91.25112082 14.42310709 93.12827029 17 95 C18.30103964 96.13517958 19.59444248 97.27926459 20.875 98.4375 C21.52210938 98.99308594 22.16921875 99.54867187 22.8359375 100.12109375 C25.42938894 102.37280881 27.96386976 104.68394718 30.5 107 C33.61907011 109.84524228 36.74755391 112.6719958 39.9375 115.4375 C43.40874491 118.46316068 46.83905766 121.53169039 50.25 124.625 C50.75781006 125.08060303 51.26562012 125.53620605 51.78881836 126.00561523 C59.53458057 133.06502787 59.53458057 133.06502787 60.49609375 137.0625 C60.31996479 142.88649759 58.85465369 145.92053981 54.9375 150.3125 C50.59332649 152.80808904 46.88786428 152.956485 42 152 C38.86567163 150.49087893 36.53781014 148.35718309 34 146 C33.04867187 145.14148438 32.09734375 144.28296875 31.1171875 143.3984375 C29.0256567 141.5023676 26.94944176 139.59113656 24.8828125 137.66796875 C21.9621526 134.96497321 18.98829926 132.3390942 15.98046875 129.734375 C13.68866845 127.72735462 11.44003248 125.67597149 9.1875 123.625 C5.6815755 120.45783815 2.10620179 117.41447729 -1.5625 114.4375 C-5.10047297 111.56289696 -8.61528237 108.6706691 -12.0625 105.6875 C-12.77535156 105.07261719 -13.48820313 104.45773437 -14.22265625 103.82421875 C-18.42937566 99.50655289 -18.2969501 95.17422364 -18.29052734 89.37939453 C-18.29724457 88.51062683 -18.30396179 87.64185913 -18.31088257 86.74676514 C-18.32987713 83.87538938 -18.33378749 81.00424717 -18.3359375 78.1328125 C-18.34236439 76.13508 -18.34909267 74.13734844 -18.35610962 72.13961792 C-18.36808601 67.95161761 -18.37179006 63.76369982 -18.37060547 59.57568359 C-18.37040226 54.21329332 -18.39770539 48.85143288 -18.43214989 43.48916817 C-18.45440421 39.36271746 -18.45844346 35.23639456 -18.45738602 31.10988998 C-18.45974414 29.13315886 -18.46857957 27.15642433 -18.48405075 25.17975235 C-18.503681 22.41259065 -18.4978844 19.64657531 -18.48583984 16.87939453 C-18.49707886 16.0656839 -18.50831787 15.25197327 -18.51989746 14.41360474 C-18.4617332 9.14600317 -17.44910264 6.20197756 -14 2 C-9.66488031 -1.83967744 -5.33249386 -1.4323214 0 0 Z " fill="#1A2C49" transform="translate(532,325)"/>
<path d="M0 0 C0.66 0.33 1.32 0.66 2 1 C2.08153933 2.58246707 2.13943557 4.16616273 2.1875 5.75 C2.23970703 7.07257812 2.23970703 7.07257812 2.29296875 8.421875 C1.94923684 11.44671583 0.99772541 12.75583602 -1 15 C-1.02715383 13.25008666 -1.04646551 11.50005055 -1.0625 9.75 C-1.07410156 8.77546875 -1.08570313 7.8009375 -1.09765625 6.796875 C-1.01195577 4.34241322 -0.70706066 2.33831086 0 0 Z " fill="#243451" transform="translate(918,521)"/>
<path d="M0 0 C0.66 0.33 1.32 0.66 2 1 C2 4.3 2 7.6 2 11 C1.01 10.34 0.02 9.68 -1 9 C-1.47114738 6.2572492 -1.17805784 3.80441103 -1 1 C-0.67 0.67 -0.34 0.34 0 0 Z " fill="#283955" transform="translate(371,423)"/>
</svg>
